<svg width="16" height="16" fill="none" xmlns="http://www.w3.org/2000/svg"><path d="M4.936 14.583a.233.233 0 01-.226-.203v-.001c-.04-.268-.124-.548-.058-.786.168-.613.43-1.2.655-1.797.298-.789.6-1.578.9-2.367l-.145-.139c-.7.306-1.44.543-2.087.934-.87.525-1.808.686-2.777.723-.466.019-.772-.33-.437-.745.363-.45.85-.822 1.339-1.138.55-.357 1.165-.614 1.907-.995-1.416-.365-2.838-.01-3.911-.938-.024-.021-.049-.04-.073-.065-.024-.024-.033-.12-.009-.15l.095-.111c.475-.56.993-1.095 1.797-1.03.956.08 1.9.29 2.853.427.452.066.91.095 1.493.152-.457-.834-.81-1.571-1.25-2.253-.346-.537-.359-1.414.148-1.887.542-.505.952.006 1.359.281.188.127.344.328.462.527.319.535.61 1.087.907 1.625.278-.645.522-1.274.818-1.878.228-.468.518-.863 1.149-.486.649.388.752.699.463 1.377-.242.572-.426 1.17-.676 1.869 1.424-.624 2.663-1.193 3.922-1.71 1.323-.543 1.396-.495 2.344.574a13.46 13.46 0 01-.04.241l-4.352 2.463c.85.094 1.574.117 2.268.27.505.111 1.02.328 1.439.628.2.142.272.598.228.886-.021.135-.45.288-.7.292-.779.016-1.558-.044-2.339-.06-.643-.012-1.288-.002-2.07-.002.586 1.097 1.138 2.083 1.634 3.096.114.234.15.644.02.832-.297.428-1.852.138-2.126-.322-.57-.96-1.164-1.905-1.8-2.941-.365.97-.633 1.903-1.064 2.754-.403.796-.334 1.95-1.805 2.047a4.956 4.956 0 01-.255.006z" fill="#007475"/></svg>